# xmcd
#
# Track frame offsets:
#	150
#	20453
#	35434
#	50317
#	63718
#	79781
#	96066
#	110777
#	125699
#
# Disc length: 1911 seconds
#
# Revision: 1
# Processed by: cddbd v1.5.2PL0 Copyright (c) Steve Scherf et al.
# Submitted via: audiograbber 1.83.01
#
DISCID=77077509
DTITLE=Singers Solution - SSC441
DYEAR=2015
DGENRE=Karaoke
TTITLE0=Eric Paslay - She Don't Love You
TTITLE1=Easton Corbin - Baby Be My Love
TTITLE2=Tim McGraw /catherine Dunne - Diamonds and Old Bar Stools
TTITLE3=Billy Currington - Don't It
TTITLE4=Blake Shelton - I Miss My Girl
TTITLE5=Carrie Underwood - Little Toy Guns
TTITLE6=Eric Church - Like A Wrecking Ball
TTITLE7=Luke Bryan - Kick Up The Dust
TTITLE8=Darius Rucker - Country Style
EXTD=
EXTT0=
EXTT1=
EXTT2=
EXTT3=
EXTT4=
EXTT5=
EXTT6=
EXTT7=
EXTT8=
PLAYORDER=
